<svg width="55" height="31" viewBox="0 0 55 31" fill="none" xmlns="http://www.w3.org/2000/svg">
<g id="Logo" clip-path="url(#clip0_275_1090)">
<path id="Vector" d="M54.9957 11.5163C55.0015 11.4746 55.0015 11.4325 54.9957 11.3908C55.0011 11.3568 55.0011 11.3222 54.9957 11.2881L54.5883 8.35545C54.5295 8.0046 54.3723 7.67667 54.1344 7.40834L54.0645 7.32846L53.9365 7.20293L46.8829 1.24635L47.0808 1.44036C46.9189 1.25047 46.7157 1.09859 46.4861 0.995902C46.2565 0.89321 46.0062 0.842317 45.7539 0.846978H43.6122C43.2639 0.840213 42.9236 0.948765 42.6461 1.15508C42.3547 0.950008 42.0038 0.842011 41.6451 0.846978H39.5034C39.2225 0.84251 38.9454 0.910853 38.7001 1.04511C38.4549 1.17936 38.2501 1.37476 38.1067 1.61151C37.8855 1.94967 37.8023 2.35709 37.8738 2.75262L38.1416 4.60121C37.9642 4.50264 37.7635 4.4515 37.5596 4.45288H27.1887C26.8166 4.45517 26.4531 4.56209 26.1411 4.76097C25.8395 4.94608 25.5973 5.21115 25.4428 5.5255L24.6396 4.85226C24.3235 4.56552 23.9063 4.41011 23.4757 4.41864H7.20353C6.83012 4.42531 6.46501 4.52758 6.14436 4.71533C5.70569 4.96704 5.38421 5.37633 5.24809 5.85643L0.0801167 22.8019C-0.0164452 23.0811 -0.0259442 23.3822 0.0528362 23.6668C0.131617 23.9513 0.295109 24.2064 0.522426 24.3995C0.581658 24.4487 0.643851 24.4944 0.708664 24.5363C0.708664 24.5363 0.603891 24.4679 0.545692 24.4109L7.59931 30.3788C7.89769 30.6482 8.28781 30.7987 8.69336 30.801H25.0936C25.4681 30.7915 25.8335 30.6852 26.1528 30.4929C26.3334 30.3962 26.495 30.2687 26.63 30.1163L26.6882 30.0365L26.7813 29.9224L26.8512 29.7968L27.6194 30.4473C27.9135 30.7059 28.2951 30.8482 28.6902 30.8467H45.1253C45.4994 30.8345 45.8641 30.7284 46.1845 30.5386C46.361 30.4359 46.5217 30.3091 46.6618 30.162L46.7199 30.0821L46.813 29.9681C46.8625 29.8958 46.9055 29.8195 46.941 29.7398C46.9791 29.6706 47.0103 29.598 47.0342 29.523L51.7482 14.0496V13.9127C51.754 13.8596 51.754 13.806 51.7482 13.7529V13.6502C51.7539 13.6162 51.7539 13.5815 51.7482 13.5475C51.7535 13.4753 51.7535 13.4029 51.7482 13.3307H53.2614C53.393 13.3425 53.5255 13.3425 53.6571 13.3307H53.7619C53.8471 13.3058 53.9291 13.2713 54.0063 13.228H54.1227L54.3322 13.0682L54.4253 12.9998L54.5883 12.7943V12.7259L54.7047 12.5319C54.6982 12.4942 54.6982 12.4556 54.7047 12.4178C54.6985 12.3993 54.6985 12.3793 54.7047 12.3608C54.7294 12.2939 54.7489 12.2252 54.7629 12.1553C54.7575 12.1328 54.7575 12.1094 54.7629 12.0869C54.7572 12.0529 54.7572 12.0182 54.7629 11.9842C54.7629 11.9842 54.9957 11.5391 54.9957 11.5163Z" fill="black"/>
<path id="Vector_2" d="M23.9532 5.71959C24.015 5.77437 24.0581 5.8464 24.0768 5.92597C24.0956 6.00555 24.089 6.08883 24.058 6.16461L18.9017 23.0986C18.8367 23.2835 18.7039 23.4381 18.5292 23.5323C18.387 23.6255 18.2225 23.6806 18.0519 23.692H1.66341C1.52345 23.6854 1.39085 23.6286 1.29094 23.5323C1.2315 23.4784 1.18978 23.4083 1.17112 23.3311C1.15246 23.2539 1.15771 23.173 1.18618 23.0986L6.35416 6.16461C6.4137 5.9774 6.54237 5.8187 6.71498 5.71959C6.85949 5.63305 7.02324 5.58215 7.19221 5.57124H23.5807C23.7196 5.57255 23.8527 5.62559 23.9532 5.71959ZM15.3981 19.6867L18.4826 9.57652H9.84606L6.77317 19.6867H15.3981ZM39.5968 5.89074C39.6527 5.95445 39.7226 6.00497 39.8012 6.03855C39.8798 6.07214 39.965 6.08793 40.0508 6.08473H42.1808C42.2619 6.08551 42.3418 6.06601 42.4132 6.02808C42.4844 5.99014 42.5446 5.93502 42.5882 5.86792C42.626 5.81551 42.6527 5.75618 42.6667 5.69345C42.6807 5.63073 42.6817 5.56589 42.6696 5.50278L42.2506 2.49025C42.2107 2.35083 42.1391 2.22208 42.0411 2.11368C41.9852 2.04998 41.9153 1.99946 41.8367 1.96587C41.7581 1.93229 41.6728 1.91651 41.5872 1.9197H39.4571C39.376 1.91892 39.296 1.93842 39.2248 1.97636C39.1535 2.01429 39.0932 2.06941 39.0498 2.13651C38.9683 2.29626 38.9333 2.39896 38.9683 2.49025L39.3989 5.50278C39.421 5.64946 39.4904 5.78538 39.5968 5.89074ZM46.3594 2.46743C46.3195 2.328 46.2478 2.19925 46.1499 2.09086C46.0963 2.02739 46.0285 1.97688 45.9518 1.94324C45.8751 1.9096 45.7915 1.89373 45.7076 1.89687H43.5659C43.4861 1.89465 43.4072 1.91362 43.3375 1.95179C43.2679 1.98996 43.2101 2.04591 43.1702 2.11368C43.0927 2.21492 43.0592 2.34208 43.0771 2.46743L43.5077 5.47995C43.5347 5.62509 43.6033 5.75967 43.7056 5.86792C43.7625 5.93038 43.8325 5.98005 43.9109 6.01353C43.9893 6.04701 44.074 6.06351 44.1595 6.0619H46.3012C46.3808 6.06294 46.4592 6.04346 46.5286 6.0054C46.5981 5.96735 46.6562 5.91208 46.697 5.84511C46.7375 5.79405 46.7657 5.73474 46.7799 5.67156C46.794 5.60838 46.7935 5.54292 46.7784 5.47995L46.3594 2.46743ZM37.7228 7.03186L37.5133 5.54841H27.189C27.0269 5.55717 26.8701 5.60841 26.735 5.69676C26.6493 5.74259 26.5747 5.80611 26.5164 5.88294C26.4582 5.95978 26.4176 6.04809 26.3975 6.14179L25.5362 8.97171C25.5018 9.04244 25.49 9.12179 25.5025 9.19919C25.515 9.27659 25.5511 9.34844 25.606 9.40536C25.7042 9.49581 25.8323 9.54854 25.9669 9.55371H38.5143L35.4298 19.6639H22.9173C22.7559 19.6675 22.5988 19.7149 22.4634 19.8008C22.2987 19.9033 22.1785 20.0618 22.1258 20.2459L21.2528 23.0758C21.2243 23.1484 21.2168 23.2273 21.2312 23.3038C21.2456 23.3804 21.2812 23.4515 21.3343 23.5094C21.4294 23.6059 21.5585 23.6631 21.6951 23.6692H38.1302C38.3002 23.6548 38.464 23.6 38.6074 23.5094C38.7793 23.4148 38.9082 23.2599 38.9683 23.0758L43.6939 7.60241H38.3746C38.2902 7.60404 38.2064 7.58868 38.1284 7.55727C38.0503 7.52587 37.9796 7.47908 37.9207 7.41982C37.8245 7.31634 37.7564 7.19076 37.7228 7.05468V7.03186Z" fill="white"/>
</g>
<defs>
<clipPath id="clip0_275_1090">
<rect width="55" height="30" fill="white" transform="translate(0 0.84668)"/>
</clipPath>
</defs>
</svg>
