<svg width="47" height="30" viewBox="0 0 47 30" fill="none" xmlns="http://www.w3.org/2000/svg">
<g id="Logo" clip-path="url(#clip0_275_1094)">
<path id="Vector" d="M43.9963 4.41102C43.9963 4.44483 43.9963 4.4871 43.9875 4.51246C43.9434 4.84214 43.9434 5.17183 43.9698 5.50997C43.9875 5.5945 44.0051 5.67904 44.0756 5.74667C44.19 5.87346 44.3662 5.84811 44.4367 5.69594C44.4719 5.61987 44.4719 5.54378 44.4543 5.4677C44.3662 5.14647 44.3486 4.80833 44.3398 4.47864C44.3398 4.46174 44.3398 4.43638 44.3398 4.41102C44.4367 4.40256 44.5248 4.39411 44.604 4.39411C44.6657 4.38566 44.7185 4.3772 44.7626 4.35184C44.8946 4.28422 44.8946 4.14051 44.7537 4.07288C44.7009 4.04752 44.6304 4.03906 44.5688 4.03906C44.3486 4.04752 44.1284 4.04752 43.9082 4.04752C43.829 4.04752 43.7497 4.05597 43.6704 4.06442C43.6263 4.07288 43.5735 4.07288 43.5383 4.09824C43.4766 4.1236 43.4414 4.16586 43.4414 4.22504C43.4502 4.28422 43.4766 4.31803 43.5383 4.34339C43.5735 4.36875 43.6175 4.3772 43.6616 4.3772C43.7672 4.38566 43.8818 4.40256 43.9963 4.41102ZM46.4184 4.79988C46.4184 4.80833 46.4272 4.81678 46.4272 4.81678C46.4624 5.04503 46.4977 5.26482 46.5241 5.48461C46.5329 5.56069 46.5417 5.62832 46.5946 5.68749C46.709 5.8312 46.8852 5.81429 46.9645 5.66213C46.9997 5.58605 47.0085 5.50997 46.9909 5.42543C46.9381 5.17183 46.9116 4.91822 46.8588 4.67307C46.8235 4.52091 46.7795 4.3772 46.7355 4.24195C46.709 4.15742 46.6474 4.09824 46.5417 4.08979C46.436 4.07288 46.3567 4.1236 46.3127 4.19968C46.2599 4.26731 46.2158 4.33494 46.1806 4.41102C46.1189 4.54627 46.0661 4.68153 45.9957 4.80833C45.9868 4.84214 45.978 4.86751 45.9604 4.89286C45.9516 4.87596 45.9428 4.86751 45.9428 4.86751C45.8283 4.65617 45.7226 4.44483 45.6081 4.24195C45.5904 4.22504 45.5817 4.20813 45.5729 4.19123C45.52 4.11515 45.4584 4.07288 45.3615 4.07288C45.2734 4.08133 45.2029 4.13205 45.1589 4.20813C45.1413 4.24195 45.1413 4.26731 45.1325 4.30112C45.0972 4.57163 45.0532 4.84214 45.018 5.11266C45.0003 5.26482 44.9915 5.41698 44.9915 5.56914C44.9827 5.60295 44.9915 5.64522 45.0091 5.67904C45.0268 5.74666 45.0796 5.78894 45.1501 5.79739C45.2381 5.80584 45.2998 5.78048 45.3262 5.71285C45.3526 5.66213 45.3615 5.61987 45.3703 5.5776C45.4055 5.42543 45.4319 5.28173 45.4584 5.13802C45.476 5.05348 45.4848 4.98585 45.5112 4.89286C45.5288 4.92668 45.5464 4.95204 45.5641 4.9774C45.6433 5.07884 45.7226 5.18028 45.8195 5.26482C45.9164 5.33244 45.9957 5.32399 46.0749 5.24791C46.0925 5.231 46.1013 5.22255 46.1189 5.20564C46.1982 5.08729 46.2951 4.96895 46.3743 4.85059C46.392 4.83369 46.4008 4.81678 46.4184 4.79988Z" fill="#3A3B7B"/>
<path id="Vector_2" d="M26.1257 4.57785C26.0644 4.7385 26.0527 4.85424 26.081 4.95044C26.1122 5.08126 26.1933 5.12409 26.3032 5.09082C27.3378 4.84529 29.6063 5.54221 30.4462 5.73645C30.6443 5.77723 30.8054 5.53182 30.6703 5.31179C30.473 5.09871 28.2055 4.18641 27.3403 4.13667C27.0011 4.11828 26.3948 4.03481 26.1257 4.57785Z" fill="#3A3B7B"/>
<path id="Vector_3" d="M34.9906 1.62411C35.1008 1.68519 35.1625 1.74345 35.1929 1.80855C35.2382 1.89394 35.2143 1.95302 35.1382 1.98317C34.4543 2.3035 33.5443 3.68259 33.177 4.15822C33.088 4.26764 32.8826 4.20406 32.8516 4.02412C32.8579 3.82068 33.6646 2.32406 34.1148 1.91643C34.2917 1.75728 34.584 1.44501 34.9906 1.62411Z" fill="#3A3B7B"/>
<path id="Vector_4" d="M29.543 0.945409C29.6755 0.849592 29.8131 0.816015 29.8834 0.878284C30.9152 1.72518 31.4623 3.06632 31.8011 4.2941C31.8139 4.32271 31.8147 4.36375 31.8045 4.40657C31.8003 4.44317 31.7724 4.48184 31.7282 4.51175C31.6809 4.54478 31.6402 4.55484 31.6211 4.52638C31.1689 3.93605 28.5861 1.63918 29.543 0.945409Z" fill="#3A3B7B"/>
<path id="Vector_5" d="M7.69524 15.6285C7.94253 15.4518 8.21137 15.3047 8.49586 15.1905C8.7935 15.1089 9.11075 15.1224 9.39966 15.2291C9.68851 15.3359 9.93338 15.53 10.0971 15.7822C10.2435 16.0337 10.3008 16.3241 10.2604 16.6096C10.2199 16.8951 10.084 17.1602 9.87289 17.3651C9.70926 17.5312 9.52348 17.6759 9.3205 17.7954C8.41582 18.3564 7.50308 18.8866 6.59039 19.4475C6.40363 19.5879 6.20551 19.7139 5.99793 19.8241C5.68217 19.9752 5.32132 20.0157 4.97776 19.9385C4.6342 19.8614 4.32955 19.6713 4.11648 19.4014C3.95719 19.2103 3.82277 19.0013 3.71616 18.779C2.8515 17.0347 1.95481 15.2981 1.12217 13.523C0.737866 12.7546 0.425627 11.8709 0.121393 11.018C-0.010233 10.7702 -0.0359366 10.4829 0.0497553 10.2171C0.135447 9.9514 0.325774 9.72823 0.580249 9.5951C0.834727 9.46196 1.13327 9.4294 1.4124 9.50427C1.69152 9.57915 1.92921 9.75559 2.0749 9.99602C2.52271 10.5672 2.91911 11.1739 3.25981 11.8095C4.12448 13.3463 4.94912 14.8831 5.78176 16.3738C5.83024 16.4562 5.8837 16.5357 5.94188 16.612C6.56859 16.3591 7.15803 16.0285 7.69524 15.6285Z" fill="#3A3B7B"/>
<path id="Vector_6" d="M16.6362 15.0924C14.6587 17.313 11.3441 16.7521 9.67887 13.8936C8.49393 11.865 8.28579 8.51469 10.8638 6.40156C11.4143 5.95916 12.0726 5.65779 12.7772 5.52556C13.6412 5.40668 14.5223 5.55297 15.2944 5.94354C16.0666 6.3341 16.6903 6.94893 17.0766 7.70019C18.4857 10.1591 18.2855 13.2942 16.6362 15.0924ZM15.8356 9.91322C15.6255 9.30896 15.2041 8.79309 14.6427 8.4532C14.325 8.2359 13.939 8.13024 13.5497 8.15404C13.1604 8.17783 12.7915 8.32962 12.505 8.58383C11.3602 9.55975 11.12 11.8727 11.9526 13.2481C12.0587 13.4724 12.2146 13.6717 12.4094 13.8322C12.6041 13.9926 12.8331 14.1102 13.0802 14.1768C13.3273 14.2434 13.5865 14.2574 13.8398 14.2178C14.0932 14.1781 14.3344 14.0859 14.5467 13.9474C15.1673 13.4856 15.6226 12.8497 15.8492 12.1281C16.076 11.4065 16.0628 10.635 15.8116 9.92093L15.8356 9.91322Z" fill="#3A3B7B"/>
<path id="Vector_7" d="M24.706 10.8815C24.5036 10.9233 24.2944 10.9258 24.0909 10.8888C23.8875 10.8518 23.6937 10.7762 23.5212 10.6663C23.3702 10.5834 23.2402 10.4695 23.1405 10.3326C23.041 10.1957 22.9742 10.0394 22.9451 9.87472C22.916 9.71014 22.9253 9.54141 22.9723 9.38066C23.0193 9.21991 23.1029 9.07115 23.2169 8.94507C23.4157 8.69171 23.6978 8.51033 24.0175 8.43025C24.8523 8.19772 25.7117 8.05595 26.5795 8.00764C26.7702 7.98635 26.9634 8.00184 27.1477 8.05319C27.332 8.10459 27.5038 8.19074 27.653 8.30674C27.8021 8.42267 27.9257 8.56609 28.0163 8.72849C28.1069 8.89089 28.1628 9.06904 28.1807 9.25247C28.4309 10.1534 28.4583 11.0981 28.2608 12.0111C27.5403 14.9618 25.0583 15.9761 22.2722 15.0309C21.4901 14.7782 20.8044 14.3074 20.3027 13.6785C19.6335 12.9212 19.1591 12.0237 18.9176 11.0582C18.7219 10.1985 18.7433 9.30632 18.9801 8.45615C19.2169 7.60599 19.6621 6.8225 20.2786 6.17112C20.8637 5.46314 21.6231 4.90597 22.4884 4.54976C23.0351 4.26052 23.6749 4.17828 24.2818 4.31924C24.4194 4.3558 24.5443 4.42705 24.6436 4.52559C24.743 4.62414 24.813 4.74638 24.8465 4.87966C24.88 5.01292 24.8757 5.15237 24.8341 5.28353C24.7925 5.41468 24.7152 5.53277 24.61 5.62554C24.4101 5.79925 24.1929 5.95367 23.9615 6.08659C23.2497 6.52164 22.6303 7.08223 22.1361 7.73867C21.8121 8.16345 21.589 8.65125 21.4825 9.16764C21.3759 9.68404 21.3886 10.2166 21.5196 10.7278C21.7012 11.4249 22.1041 12.0506 22.6725 12.5182C24.4338 14.0551 26.7236 12.572 26.3233 10.4742C25.7389 10.6126 25.2265 10.7586 24.706 10.8815Z" fill="#3A3B7B"/>
<path id="Vector_8" d="M35.4676 15.2151C32.8656 16.7519 29.9033 15.2151 29.2548 11.9878C28.7825 9.68254 29.6791 6.45518 32.8176 5.22572C33.4853 4.96977 34.2096 4.8799 34.9232 4.96446C35.7805 5.11509 36.5671 5.52019 37.1717 6.12265C37.7764 6.7251 38.169 7.49449 38.2938 8.32244C38.8222 11.0656 37.6213 13.9933 35.4676 15.2151ZM36.3723 10.0437C36.3715 9.40533 36.1363 8.78763 35.7078 8.29937C35.4788 7.99738 35.1477 7.781 34.7711 7.68708C34.3943 7.59322 33.9954 7.62763 33.6422 7.78456C32.2331 8.36851 31.2403 10.4893 31.6006 12.0493C31.6282 12.2941 31.711 12.5301 31.8435 12.741C31.976 12.9518 32.1548 13.1324 32.3676 13.27C32.5803 13.4075 32.8218 13.4989 33.0752 13.5376C33.3286 13.5762 33.5877 13.5613 33.8343 13.4939C34.5792 13.2441 35.2241 12.7774 35.679 12.1589C36.1341 11.5403 36.3764 10.8008 36.3723 10.0437Z" fill="#3A3B7B"/>
<path id="Vector_9" d="M40.9227 15.8609C40.8834 16.1421 40.7294 16.3969 40.4944 16.5691C40.2594 16.7413 39.9627 16.8169 39.6697 16.7792C39.3767 16.7415 39.1113 16.5936 38.9319 16.368C38.7524 16.1425 38.6737 15.8578 38.713 15.5766C38.7523 15.2953 38.9064 15.0406 39.1413 14.8684C39.3763 14.6962 39.673 14.6206 39.966 14.6583C40.259 14.696 40.5244 14.8439 40.7039 15.0694C40.8833 15.295 40.962 15.5797 40.9227 15.8609ZM40.2261 5.49498C40.3784 5.27178 40.6018 5.1018 40.863 5.01041C41.1241 4.91901 41.4091 4.91109 41.6753 4.98783C41.9459 5.05282 42.185 5.20508 42.3527 5.4191C42.5203 5.63313 42.6062 5.89593 42.596 6.1635C42.5607 6.59268 42.4938 7.01893 42.3959 7.43905C42.1317 8.86064 41.8754 10.2822 41.5953 11.6884C41.4671 12.2494 41.299 12.7872 41.1148 13.3558C41.0508 13.5336 40.9438 13.6942 40.8026 13.8246C40.7149 13.9227 40.6028 13.9979 40.4767 14.0433C40.3506 14.0888 40.2147 14.1029 40.0814 14.0845C39.9481 14.0661 39.8217 14.0158 39.7141 13.9381C39.6065 13.8604 39.521 13.758 39.4656 13.6402C39.3704 13.4289 39.3187 13.2018 39.3135 12.9717C39.3135 12.0188 39.3135 11.0583 39.3775 10.0978C39.4864 8.72698 39.7004 7.36575 40.018 6.02518C40.0554 5.84558 40.1258 5.67383 40.2261 5.51803V5.49498Z" fill="#3A3B7B"/>
<path id="Vector_10" fill-rule="evenodd" clip-rule="evenodd" d="M4.31141 22.0356C4.21688 22.2382 4.19096 22.464 4.23715 22.6813C4.26788 22.9677 4.33538 23.2495 4.43811 23.5201C4.56637 23.8515 4.70988 24.1792 4.88685 24.5831C4.92754 24.676 4.97007 24.773 5.01457 24.8751C5.25321 25.4223 5.55264 26.1216 5.95204 27.1336C6.06509 27.4211 6.16548 27.711 6.26657 28.0028C6.3074 28.1207 6.34839 28.2391 6.39034 28.3576C6.54071 28.7792 6.79945 29.1579 7.14242 29.458C7.28805 29.623 7.48122 29.7432 7.69782 29.8033C7.91866 29.8646 8.15352 29.8607 8.372 29.7922C8.59049 29.7236 8.78238 29.5935 8.92278 29.4188C9.06042 29.2475 9.14227 29.041 9.15818 28.8254C9.24748 28.4053 9.217 27.9697 9.06982 27.5647C8.83623 26.8922 8.57014 26.2187 8.2633 25.56L8.26189 25.5571C7.75711 24.5266 7.244 23.5032 6.70662 22.4793L6.7026 22.4721C6.54528 22.2054 6.34084 21.9669 6.09845 21.7675C5.9411 21.5895 5.72404 21.4694 5.48434 21.428C5.23953 21.3858 4.98705 21.4283 4.77197 21.5482C4.5685 21.6597 4.40721 21.8304 4.31141 22.0356Z" fill="#3A3B7B"/>
<path id="Vector_11" fill-rule="evenodd" clip-rule="evenodd" d="M12.0214 19.4985C11.2299 19.3018 10.4033 19.2731 9.59921 19.4145C8.97639 19.4734 8.36385 19.6113 7.9385 19.8844C7.72216 20.0234 7.54726 20.2019 7.44997 20.4287C7.35214 20.6568 7.33965 20.9177 7.41982 21.2084C7.56619 21.7408 7.75627 22.2584 7.94568 22.7744L7.97636 22.858L7.9771 22.8599C8.54742 24.3589 9.12317 25.8529 9.70415 27.3417C9.7719 27.5763 9.86771 27.8026 9.98964 28.0161L9.99193 28.0201C10.153 28.2853 10.3596 28.5225 10.603 28.7217C10.7247 28.8313 10.8753 28.9071 11.0385 28.941C11.2033 28.9751 11.3747 28.9652 11.5341 28.9122C11.6935 28.8593 11.8346 28.7654 11.9422 28.6407C12.048 28.518 12.1173 28.3702 12.1427 28.213C12.2477 27.7858 12.2141 27.3379 12.0462 26.9295C11.9939 26.7921 11.9528 26.6517 11.9095 26.5038C11.895 26.4545 11.8804 26.4044 11.8649 26.3533C13.1948 25.8544 14.6099 25.1835 15.1075 23.6228C15.3023 23.0834 15.3186 22.4994 15.1539 21.9508C14.9892 21.4015 14.6511 20.9147 14.1863 20.5574C13.5538 20.0571 12.8149 19.6957 12.0214 19.4985ZM9.82749 21.4128C9.85368 21.4056 9.88007 21.3988 9.90652 21.3926C10.7723 21.262 11.6581 21.436 12.4009 21.8826C12.7282 22.1011 12.8623 22.3439 12.8853 22.5774C12.9091 22.8179 12.818 23.0785 12.6349 23.3291C12.2891 23.8023 11.6579 24.1811 11.0878 24.2517C10.6722 23.333 10.2502 22.3772 9.82749 21.4128Z" fill="#3A3B7B"/>
<path id="Vector_12" d="M17.2998 17.8168C18.2424 17.399 19.4099 17.3268 20.3235 17.6206C20.5536 17.6849 20.7533 17.824 20.8883 18.0142C21.0224 18.2032 21.0843 18.4309 21.0637 18.6585C21.0623 18.8063 21.0245 18.9517 20.9534 19.0828C20.881 19.2164 20.7762 19.3312 20.6478 19.4177C20.5195 19.5041 20.3713 19.5596 20.2158 19.5795C20.0603 19.5994 19.9022 19.583 19.7547 19.5318L19.7435 19.5279L19.733 19.5226C19.6575 19.4847 19.5773 19.4562 19.4944 19.4376L19.4892 19.4364C18.8465 19.2726 18.2402 19.5441 18.0188 19.8776C17.9132 20.0367 17.9001 20.1972 17.988 20.3433C18.0822 20.4997 18.3133 20.6752 18.7808 20.8003C18.9094 20.8342 19.0412 20.8669 19.1749 20.9001C19.5446 20.992 19.9287 21.0874 20.3002 21.2197L20.3017 21.2202C22.0155 21.8461 22.6537 23.1423 22.4353 24.3615C22.2191 25.5672 21.17 26.6644 19.5924 26.9233C19.0183 27.0454 18.4209 27.0216 17.8592 26.8542C17.2961 26.6864 16.7886 26.3801 16.387 25.9657L16.3766 25.9549C16.2498 25.7987 16.1645 25.6153 16.1267 25.4207C16.0919 25.245 16.1103 25.0635 16.1794 24.8975C16.2482 24.7324 16.3645 24.5896 16.5145 24.4855C16.6731 24.3676 16.8641 24.2968 17.0642 24.282C17.2635 24.2673 17.463 24.3089 17.638 24.4016C17.8129 24.4826 17.9755 24.5861 18.1215 24.709L18.1242 24.7113C18.3824 24.9379 18.6949 24.997 18.9945 24.9423C19.2984 24.8868 19.5842 24.7142 19.7681 24.4851C19.9507 24.2576 20.024 23.9872 19.937 23.7248C19.8494 23.4604 19.5862 23.1642 19.0077 22.9166C18.8565 22.855 18.6998 22.8053 18.5367 22.7569C18.4927 22.7438 18.448 22.7308 18.4027 22.7177C18.2821 22.6825 18.1581 22.6463 18.0364 22.6065C17.9526 22.5791 17.8695 22.5531 17.7872 22.5273C17.5622 22.457 17.3428 22.3884 17.1317 22.2965C16.6722 22.1464 16.2753 21.8581 15.9999 21.4743C15.7235 21.089 15.5843 20.6282 15.6033 20.1608C15.6047 19.0217 16.3522 18.2369 17.2998 17.8168Z" fill="#3A3B7B"/>
<path id="Vector_13" d="M29.2479 17.6955C29.0651 17.6098 28.863 17.5692 28.6599 17.5772C28.4566 17.5852 28.2587 17.6416 28.0839 17.7415C27.9102 17.8406 27.7648 17.9794 27.6606 18.1456C27.565 18.2855 27.4989 18.4419 27.4659 18.6063C27.433 18.7704 27.4338 18.9392 27.4682 19.103C27.5023 19.3135 27.54 19.5182 27.5773 19.7201C27.639 20.0541 27.699 20.3807 27.7386 20.7137L27.7401 20.7221C27.8302 21.2443 27.8774 21.7725 27.8817 22.3017L27.8821 22.3092C27.9129 22.8808 27.71 23.4412 27.3169 23.8716L27.3106 23.8792C27.1827 24.0366 27.0117 24.1567 26.8167 24.2261C26.6217 24.2955 26.4104 24.3114 26.2065 24.2721C26.0026 24.2329 25.8141 24.1399 25.6621 24.0037C25.5101 23.8675 25.4005 23.6928 25.3458 23.5003C25.2289 23.0945 25.1613 22.6771 25.1441 22.2564L25.3437 19.2073C25.3466 19.1675 25.35 19.1266 25.3534 19.0854C25.361 18.9927 25.3688 18.8984 25.372 18.8104C25.3767 18.681 25.3727 18.5479 25.3413 18.4218C25.3091 18.2931 25.2479 18.1705 25.1394 18.0662C25.032 17.9629 24.887 17.8867 24.7045 17.8349C24.3745 17.7432 24.0954 17.7461 23.8629 17.8408C23.6303 17.9355 23.4709 18.1113 23.3581 18.3145C23.2461 18.5159 23.1742 18.7544 23.1198 18.9932C23.0795 19.1704 23.0471 19.3565 23.0162 19.5336C23.0056 19.5946 22.9952 19.6545 22.9846 19.7127L22.9843 19.7145C22.8194 20.6857 22.7704 21.6718 22.838 22.6537C22.8507 23.1844 22.9659 23.7081 23.1781 24.1983C23.4175 24.8308 23.851 25.3787 24.4215 25.7699C24.9933 26.1619 25.6755 26.3779 26.3779 26.3893C27.0804 26.4007 27.7699 26.207 28.3551 25.8338C28.9394 25.4613 29.3922 24.9273 29.6536 24.3025C30.0194 23.5067 30.1911 22.6411 30.1557 21.7719C30.1342 21.1374 30.0982 20.4979 30.0624 19.8617C30.0448 19.5496 30.0273 19.2382 30.0116 18.9287C30.0037 18.6183 29.897 18.3177 29.7059 18.0672C29.5877 17.9088 29.4303 17.7811 29.2479 17.6955Z" fill="#3A3B7B"/>
<path id="Vector_14" d="M35.7175 22.4767C35.699 22.4994 35.6794 22.5228 35.659 22.5471C35.5104 21.724 35.3726 20.9012 35.2346 20.0771C35.1851 19.7815 35.1354 19.4845 35.0853 19.1885L35.0797 19.1555L35.0614 19.1269C35.027 19.0732 35.0236 19.0205 35.0236 18.9082V18.8952L35.0215 18.8824C34.9842 18.6505 34.8748 18.4346 34.7079 18.2631C34.5413 18.0921 34.3251 17.973 34.0872 17.9214C33.8497 17.8652 33.6001 17.8775 33.3699 17.957C33.1403 18.0363 32.9401 18.1788 32.7944 18.3667C32.6733 18.5108 32.574 18.6707 32.4996 18.8415C32.3307 19.2096 32.1604 19.5785 31.9896 19.9485L31.9866 19.9549C31.5602 20.8785 31.1309 21.8082 30.7141 22.7453L30.7128 22.7484C30.4569 23.356 30.2457 23.9962 30.0352 24.6345C29.9932 24.7619 29.9511 24.8892 29.9088 25.0162C29.8328 25.2176 29.7995 25.4316 29.8109 25.6455C29.7971 25.8369 29.8448 26.0279 29.9478 26.1926C30.0528 26.3607 30.2102 26.4929 30.3976 26.5708C30.5962 26.6543 30.8182 26.6721 31.0286 26.6212C31.2385 26.5704 31.4248 26.4541 31.5584 26.2906C31.7289 26.0893 31.8756 25.8697 31.9953 25.637C32.3484 24.9438 32.6859 24.2421 33.0218 23.5435C33.1518 23.2733 33.2781 23.0312 33.4217 22.7677C33.4316 22.8002 33.4417 22.8319 33.4521 22.8636C33.6027 23.5 33.8569 24.1095 34.2053 24.6699C34.2712 24.7886 34.3631 24.8923 34.4745 24.974C34.5873 25.0566 34.7175 25.1146 34.856 25.1441C34.9946 25.1735 35.1381 25.1737 35.2767 25.1445C35.4151 25.1154 35.5457 25.0573 35.6585 24.975L35.8819 24.8145L37.6158 23.4129L37.5132 24.04C37.3725 24.902 37.2328 25.7568 37.0844 26.6119C36.9874 26.9909 36.9875 27.3867 37.0849 27.7656C37.127 27.9788 37.2344 28.175 37.3934 28.3294C37.5538 28.485 37.7591 28.5907 37.9828 28.6329C38.2065 28.675 38.4383 28.6517 38.648 28.5658C38.8547 28.4813 39.0305 28.3398 39.1533 28.1596C39.4392 27.8191 39.6171 27.407 39.666 26.9722C39.7396 26.3582 39.8227 25.7358 39.9059 25.1136C40.0017 24.3965 40.0976 23.6795 40.1785 22.9763L40.1787 22.9742C40.2566 22.2044 40.2943 21.4315 40.2917 20.6581C40.3087 20.4137 40.2453 20.1703 40.1102 19.9622C39.9747 19.7534 39.7739 19.591 39.5366 19.4982C39.2898 19.3905 39.0135 19.3617 38.7484 19.4161C38.485 19.4702 38.2466 19.6034 38.0677 19.7965C37.7479 20.0804 37.4479 20.3841 37.1696 20.7058L37.1677 20.708C36.8639 21.0714 36.5621 21.4418 36.2624 21.8099C36.0801 22.0337 35.8983 22.2569 35.7175 22.4767Z" fill="#3A3B7B"/>
</g>
<defs>
<clipPath id="clip0_275_1094">
<rect width="47" height="29" fill="white" transform="translate(0 0.84668)"/>
</clipPath>
</defs>
</svg>
